<svg width="20" height="20" viewBox="0 0 20 20" xmlns="http://www.w3.org/2000/svg">
<path  d="M10 19.5999C15.3019 19.5999 19.6 15.3018 19.6 9.9999C19.6 4.69797 15.3019 0.399902 10 0.399902C4.69807 0.399902 0.4 4.69797 0.4 9.9999C0.4 15.3018 4.69807 19.5999 10 19.5999ZM14.8604 8.09308L8.58234 14.5748L5.09629 10.9759C5.05206 10.9314 4.92732 10.8033 4.85058 10.5801C4.80644 10.4517 4.78107 10.2899 4.81723 10.11C4.85375 9.92842 4.94741 9.75661 5.09722 9.60194C5.24673 9.44757 5.41614 9.34761 5.59968 9.30827C5.78189 9.26922 5.94562 9.29683 6.07408 9.34391C6.22203 9.39813 6.36016 9.48955 6.46751 9.60528L8.58234 11.7887L13.5092 6.70195C13.6303 6.58917 13.7726 6.50194 13.9299 6.44967C14.0589 6.40683 14.2232 6.38063 14.4051 6.41739C14.5904 6.45487 14.7646 6.55198 14.9171 6.70943C15.0694 6.86671 15.1616 7.04453 15.1904 7.23368C15.2186 7.41929 15.1809 7.58316 15.1285 7.70903C15.0384 7.92548 14.9076 8.0491 14.8604 8.09308Z" fill="#333333"/>
</svg>
