<svg width="18" height="24" viewBox="0 0 18 24" xmlns="http://www.w3.org/2000/svg">
<path opacity="0.8" d="M6.10468 2.80531V2.18086C6.10468 1.83799 6.44627 1.5585 6.86558 1.5585H11.1355C11.5558 1.5585 11.8974 1.83799 11.8974 2.18086V2.80531H6.10468ZM15.3532 4.36278C15.2642 6.71613 14.7129 21.1355 14.6434 21.7848C14.6025 22.1734 14.4613 22.3646 14.3857 22.4415H3.61533C3.53862 22.3646 3.39851 22.1734 3.3576 21.7848C3.28908 21.1355 2.67237 6.72652 2.57214 4.36278H15.3532ZM13.4253 2.80532V2.18087C13.4253 0.977705 12.467 0 11.2878 0H6.71318C5.53398 0 4.57568 0.977705 4.57568 2.18087V2.80532H0V4.36279H1.04318L1.83682 22.3511C1.85011 22.4176 2.19068 24 3.50898 24H14.49C15.8093 24 16.1499 22.4176 16.1703 22.3002L16.92 4.36279H18V2.80532H13.4253ZM13.1141 5.61083H11.5851L11.1086 21.1949H12.6375L13.1141 5.61083ZM8.23532 21.1951H9.7643V5.61105H8.23532V21.1951ZM6.89128 21.1949L6.41469 5.61083H4.88571L5.36128 21.1949H6.89128Z"/>
</svg>
